<?xml version="1.0" encoding="UTF-8"?>
<svg  width="48" height="48" id="Layer_1" xmlns="http://www.w3.org/2000/svg" version="1.1" viewBox="0 0 48 48">
  <!-- Generator: Adobe Illustrator 29.6.1, SVG Export Plug-In . SVG Version: 2.1.1 Build 9)  -->
  <defs>
    <style>
      .st0 {
        fill: #444;
      }

      .st1 {
        fill: #26d07c;
      }
    </style>
  </defs>
  <path class="st0" d="M0,8C0,3.58,3.58,0,8,0h32c4.42,0,8,3.58,8,8v32c0,4.42-3.58,8-8,8H8c-4.42,0-8-3.58-8-8V8Z"/>
  <path class="st1" d="M4.88,10.97c1.56,5.4,3.78,9.97,6.37,15.03l2.21-.67c-2.76-4.21-5.02-7.74-5.79-12.27l1.95.51c.99,6.05,6.42,10.71,8.77,13.53.39,1.32.05,2.63-.39,3.72,4.14,2.02,8.4,4.62,13.11,5.58,1.77-1.38,3.55-2.23,5.47.62l.79-2.26,1.86-.06-1.04-2.28c1.8.65,4.04-1.29,4.09-1.83.13-1.56.04-2.52.85-3.78l-4.48.62c-.11,1.31.13,2.79-1.21,3.55-7.1,4.03-9.26-5.01-8.63-8.8-2.92-1.29-3.29-2.81-5.02-5.47l-1.8-.23-1.24,1.07-3.21-4.12-12.63-2.48Z"/>
</svg>
